<mxfile host="app.diagrams.net" modified="2024-04-17T21:48:23.907Z" agent="Mozilla/5.0 (X11; Linux x86_64) AppleWebKit/537.36 (KHTML, like Gecko) Chrome/123.0.0.0 Safari/537.36" etag="xyjAcITd0EXKatSmCOSh" version="24.2.5" type="device" pages="5">
  <diagram id="TrZ-H8Da3qq9aLU9SPik" name="Flow of the app">
    <mxGraphModel dx="1737" dy="1674" grid="1" gridSize="10" guides="1" tooltips="1" connect="1" arrows="1" fold="1" page="1" pageScale="1" pageWidth="827" pageHeight="1169" math="0" shadow="0">
      <root>
        <mxCell id="0" />
        <mxCell id="1" parent="0" />
        <mxCell id="liIZSH5RQYmUz2vL5TKs-3" value="" style="rounded=0;whiteSpace=wrap;html=1;fillColor=#dae8fc;strokeColor=#6c8ebf;fillStyle=dashed;" parent="1" vertex="1">
          <mxGeometry y="160" width="200" height="160" as="geometry" />
        </mxCell>
        <mxCell id="liIZSH5RQYmUz2vL5TKs-4" value="" style="rounded=0;whiteSpace=wrap;html=1;fillColor=#f8cecc;strokeColor=#b85450;fillStyle=dashed;" parent="1" vertex="1">
          <mxGeometry x="320" y="170" width="200" height="180" as="geometry" />
        </mxCell>
        <mxCell id="liIZSH5RQYmUz2vL5TKs-5" value="" style="rounded=0;whiteSpace=wrap;html=1;fillColor=#fff2cc;strokeColor=#d6b656;fillStyle=dashed;gradientColor=none;" parent="1" vertex="1">
          <mxGeometry x="660" y="160" width="290" height="320" as="geometry" />
        </mxCell>
        <mxCell id="es6ofyouln5sS3Tgfs08-6" value="" style="group;fillColor=#fff2cc;strokeColor=#d6b656;" parent="1" vertex="1" connectable="0">
          <mxGeometry x="720" y="200" width="120" height="50" as="geometry" />
        </mxCell>
        <mxCell id="es6ofyouln5sS3Tgfs08-1" value="" style="rounded=0;whiteSpace=wrap;html=1;" parent="es6ofyouln5sS3Tgfs08-6" vertex="1">
          <mxGeometry width="120" height="50" as="geometry" />
        </mxCell>
        <mxCell id="es6ofyouln5sS3Tgfs08-4" value="&lt;font style=&quot;font-size: 16px;&quot; face=&quot;Courier New&quot;&gt;Entities&lt;/font&gt;" style="text;html=1;align=center;verticalAlign=middle;whiteSpace=wrap;rounded=0;" parent="es6ofyouln5sS3Tgfs08-6" vertex="1">
          <mxGeometry width="120" height="50" as="geometry" />
        </mxCell>
        <mxCell id="z9FG9AvtT7yrs5gUOfZ3-5" style="edgeStyle=orthogonalEdgeStyle;rounded=0;orthogonalLoop=1;jettySize=auto;html=1;entryX=0.5;entryY=0;entryDx=0;entryDy=0;strokeWidth=2;fillColor=#f8cecc;strokeColor=#b85450;exitX=1;exitY=0.25;exitDx=0;exitDy=0;endArrow=none;endFill=0;" parent="1" source="es6ofyouln5sS3Tgfs08-4" target="f7sNq5c6VwE4PImA_pKB-110" edge="1">
          <mxGeometry relative="1" as="geometry">
            <mxPoint x="840" y="190" as="sourcePoint" />
            <mxPoint x="840" y="390" as="targetPoint" />
            <Array as="points">
              <mxPoint x="900" y="213" />
            </Array>
          </mxGeometry>
        </mxCell>
        <mxCell id="z9FG9AvtT7yrs5gUOfZ3-6" style="edgeStyle=orthogonalEdgeStyle;rounded=0;orthogonalLoop=1;jettySize=auto;html=1;exitX=1;exitY=0.75;exitDx=0;exitDy=0;entryX=1;entryY=0.5;entryDx=0;entryDy=0;strokeWidth=2;fillColor=#f8cecc;strokeColor=#b85450;" parent="1" source="es6ofyouln5sS3Tgfs08-4" target="es6ofyouln5sS3Tgfs08-10" edge="1">
          <mxGeometry relative="1" as="geometry">
            <Array as="points">
              <mxPoint x="870" y="238" />
              <mxPoint x="870" y="305" />
            </Array>
          </mxGeometry>
        </mxCell>
        <mxCell id="z9FG9AvtT7yrs5gUOfZ3-7" value="&lt;font face=&quot;Courier New&quot; style=&quot;font-size: 20px;&quot;&gt;&lt;i&gt;Domain&lt;/i&gt;&lt;/font&gt;" style="text;html=1;align=center;verticalAlign=middle;whiteSpace=wrap;rounded=0;" parent="1" vertex="1">
          <mxGeometry x="660" y="430" width="290" height="40" as="geometry" />
        </mxCell>
        <mxCell id="z9FG9AvtT7yrs5gUOfZ3-8" value="&lt;font face=&quot;Courier New&quot; style=&quot;font-size: 20px;&quot;&gt;&lt;i&gt;Application&lt;/i&gt;&lt;/font&gt;" style="text;html=1;align=center;verticalAlign=middle;whiteSpace=wrap;rounded=0;" parent="1" vertex="1">
          <mxGeometry x="320" y="310" width="200" height="40" as="geometry" />
        </mxCell>
        <mxCell id="z9FG9AvtT7yrs5gUOfZ3-9" value="" style="rounded=0;whiteSpace=wrap;html=1;fillColor=#d5e8d4;strokeColor=#82b366;fillStyle=dashed;" parent="1" vertex="1">
          <mxGeometry y="320" width="200" height="160" as="geometry" />
        </mxCell>
        <mxCell id="z9FG9AvtT7yrs5gUOfZ3-10" value="&lt;font face=&quot;Courier New&quot; style=&quot;font-size: 20px;&quot;&gt;&lt;i&gt;Infrastructure&lt;/i&gt;&lt;/font&gt;" style="text;html=1;align=center;verticalAlign=middle;whiteSpace=wrap;rounded=0;" parent="1" vertex="1">
          <mxGeometry y="440" width="200" height="40" as="geometry" />
        </mxCell>
        <mxCell id="z9FG9AvtT7yrs5gUOfZ3-11" value="&lt;font face=&quot;Courier New&quot;&gt;&lt;span style=&quot;font-size: 20px;&quot;&gt;&lt;i&gt;Presentation&lt;/i&gt;&lt;/span&gt;&lt;/font&gt;" style="text;html=1;align=center;verticalAlign=middle;whiteSpace=wrap;rounded=0;" parent="1" vertex="1">
          <mxGeometry y="280" width="200" height="40" as="geometry" />
        </mxCell>
        <mxCell id="z9FG9AvtT7yrs5gUOfZ3-39" value="" style="group" parent="1" vertex="1" connectable="0">
          <mxGeometry x="40" y="342.31" width="160" height="115.38615384615383" as="geometry" />
        </mxCell>
        <mxCell id="z9FG9AvtT7yrs5gUOfZ3-40" value="" style="rounded=0;whiteSpace=wrap;html=1;" parent="z9FG9AvtT7yrs5gUOfZ3-39" vertex="1">
          <mxGeometry width="120" height="40" as="geometry" />
        </mxCell>
        <mxCell id="z9FG9AvtT7yrs5gUOfZ3-41" value="&lt;font style=&quot;font-size: 16px;&quot; face=&quot;Courier New&quot;&gt;Services&lt;/font&gt;" style="text;html=1;align=center;verticalAlign=middle;whiteSpace=wrap;rounded=0;" parent="z9FG9AvtT7yrs5gUOfZ3-39" vertex="1">
          <mxGeometry width="120" height="40" as="geometry" />
        </mxCell>
        <mxCell id="z9FG9AvtT7yrs5gUOfZ3-42" value="" style="group;fontStyle=4" parent="1" vertex="1" connectable="0">
          <mxGeometry x="40" y="400" width="120" height="40" as="geometry" />
        </mxCell>
        <mxCell id="z9FG9AvtT7yrs5gUOfZ3-43" value="" style="rounded=0;whiteSpace=wrap;html=1;" parent="z9FG9AvtT7yrs5gUOfZ3-42" vertex="1">
          <mxGeometry width="120" height="40" as="geometry" />
        </mxCell>
        <mxCell id="z9FG9AvtT7yrs5gUOfZ3-44" value="&lt;font style=&quot;font-size: 16px;&quot; face=&quot;Courier New&quot;&gt;Persistence&lt;/font&gt;" style="text;html=1;align=center;verticalAlign=middle;whiteSpace=wrap;rounded=0;" parent="z9FG9AvtT7yrs5gUOfZ3-42" vertex="1">
          <mxGeometry width="120" height="40" as="geometry" />
        </mxCell>
        <mxCell id="f7sNq5c6VwE4PImA_pKB-13" value="" style="rounded=0;whiteSpace=wrap;html=1;fillColor=#f5f5f5;fontColor=#333333;strokeColor=#666666;dashed=1;" parent="1" vertex="1">
          <mxGeometry x="-190" y="20" width="80" height="40" as="geometry" />
        </mxCell>
        <mxCell id="f7sNq5c6VwE4PImA_pKB-14" value="" style="endArrow=classic;html=1;rounded=0;strokeWidth=2;fillColor=#dae8fc;strokeColor=#6c8ebf;" parent="1" edge="1">
          <mxGeometry width="50" height="50" relative="1" as="geometry">
            <mxPoint x="-30" y="39.74000000000001" as="sourcePoint" />
            <mxPoint x="50" y="39.74000000000001" as="targetPoint" />
          </mxGeometry>
        </mxCell>
        <mxCell id="f7sNq5c6VwE4PImA_pKB-15" value="" style="endArrow=classic;html=1;rounded=0;strokeWidth=2;fillColor=#f8cecc;strokeColor=#b85450;" parent="1" edge="1">
          <mxGeometry width="50" height="50" relative="1" as="geometry">
            <mxPoint x="130" y="39.47000000000003" as="sourcePoint" />
            <mxPoint x="210" y="39.47000000000003" as="targetPoint" />
          </mxGeometry>
        </mxCell>
        <mxCell id="f7sNq5c6VwE4PImA_pKB-16" value="Folder contains only interfaces" style="text;html=1;align=center;verticalAlign=middle;whiteSpace=wrap;rounded=0;fontFamily=Courier New;fontSize=16;" parent="1" vertex="1">
          <mxGeometry x="-230" y="70" width="150" height="50" as="geometry" />
        </mxCell>
        <mxCell id="f7sNq5c6VwE4PImA_pKB-17" value="Implements" style="text;html=1;align=center;verticalAlign=middle;whiteSpace=wrap;rounded=0;fontFamily=Courier New;fontSize=16;" parent="1" vertex="1">
          <mxGeometry x="-60" y="50" width="140" height="50" as="geometry" />
        </mxCell>
        <mxCell id="f7sNq5c6VwE4PImA_pKB-18" value="Use" style="text;html=1;align=center;verticalAlign=middle;whiteSpace=wrap;rounded=0;fontFamily=Courier New;fontSize=16;" parent="1" vertex="1">
          <mxGeometry x="100" y="50" width="140" height="50" as="geometry" />
        </mxCell>
        <mxCell id="f7sNq5c6VwE4PImA_pKB-19" value="" style="rounded=1;whiteSpace=wrap;html=1;fillColor=none;dashed=1;strokeWidth=2;" parent="1" vertex="1">
          <mxGeometry x="-240" width="480" height="130" as="geometry" />
        </mxCell>
        <mxCell id="es6ofyouln5sS3Tgfs08-13" value="&lt;font style=&quot;font-size: 16px;&quot; face=&quot;Courier New&quot;&gt;Persistence&lt;/font&gt;" style="text;html=1;align=center;verticalAlign=middle;whiteSpace=wrap;rounded=0;fillColor=#f5f5f5;fontColor=#333333;strokeColor=#666666;dashed=1;" parent="1" vertex="1">
          <mxGeometry x="720" y="360" width="120" height="50" as="geometry" />
        </mxCell>
        <mxCell id="es6ofyouln5sS3Tgfs08-10" value="&lt;font style=&quot;font-size: 16px;&quot; face=&quot;Courier New&quot;&gt;Services&lt;/font&gt;" style="text;html=1;align=center;verticalAlign=middle;whiteSpace=wrap;rounded=0;fillColor=#f5f5f5;fontColor=#333333;strokeColor=#666666;dashed=1;" parent="1" vertex="1">
          <mxGeometry x="720" y="280" width="120" height="50" as="geometry" />
        </mxCell>
        <mxCell id="f7sNq5c6VwE4PImA_pKB-20" style="edgeStyle=orthogonalEdgeStyle;rounded=0;orthogonalLoop=1;jettySize=auto;html=1;fillColor=#dae8fc;strokeColor=#6c8ebf;strokeWidth=2;exitX=1;exitY=0.5;exitDx=0;exitDy=0;" parent="1" source="z9FG9AvtT7yrs5gUOfZ3-41" edge="1">
          <mxGeometry relative="1" as="geometry">
            <mxPoint x="160" y="360" as="sourcePoint" />
            <mxPoint x="720" y="320" as="targetPoint" />
            <Array as="points">
              <mxPoint x="580" y="362" />
              <mxPoint x="580" y="320" />
            </Array>
          </mxGeometry>
        </mxCell>
        <mxCell id="f7sNq5c6VwE4PImA_pKB-21" style="edgeStyle=orthogonalEdgeStyle;rounded=0;orthogonalLoop=1;jettySize=auto;html=1;entryX=0;entryY=0.5;entryDx=0;entryDy=0;fillColor=#dae8fc;strokeColor=#6c8ebf;strokeWidth=2;exitX=1;exitY=0.5;exitDx=0;exitDy=0;" parent="1" source="z9FG9AvtT7yrs5gUOfZ3-44" target="es6ofyouln5sS3Tgfs08-13" edge="1">
          <mxGeometry relative="1" as="geometry">
            <Array as="points">
              <mxPoint x="610" y="420" />
              <mxPoint x="610" y="385" />
            </Array>
          </mxGeometry>
        </mxCell>
        <mxCell id="f7sNq5c6VwE4PImA_pKB-35" style="edgeStyle=orthogonalEdgeStyle;rounded=0;orthogonalLoop=1;jettySize=auto;html=1;exitX=1;exitY=0.75;exitDx=0;exitDy=0;fillColor=#f8cecc;strokeColor=#b85450;strokeWidth=2;entryX=-0.002;entryY=0.314;entryDx=0;entryDy=0;endArrow=none;endFill=0;entryPerimeter=0;" parent="1" source="f7sNq5c6VwE4PImA_pKB-26" target="f7sNq5c6VwE4PImA_pKB-59" edge="1">
          <mxGeometry relative="1" as="geometry">
            <mxPoint x="360" y="242" as="targetPoint" />
            <Array as="points" />
          </mxGeometry>
        </mxCell>
        <mxCell id="f7sNq5c6VwE4PImA_pKB-48" value="" style="endArrow=none;html=1;rounded=0;exitX=1.006;exitY=0.79;exitDx=0;exitDy=0;exitPerimeter=0;fillColor=#f8cecc;strokeColor=#b85450;strokeWidth=2;endFill=0;entryX=0.009;entryY=0.84;entryDx=0;entryDy=0;entryPerimeter=0;" parent="1" source="z9FG9AvtT7yrs5gUOfZ3-15" target="f7sNq5c6VwE4PImA_pKB-40" edge="1">
          <mxGeometry width="50" height="50" relative="1" as="geometry">
            <mxPoint x="510" y="300" as="sourcePoint" />
            <mxPoint x="550" y="290" as="targetPoint" />
          </mxGeometry>
        </mxCell>
        <mxCell id="f7sNq5c6VwE4PImA_pKB-49" value="" style="endArrow=classic;html=1;rounded=0;fillColor=#f8cecc;strokeColor=#b85450;strokeWidth=2;endFill=1;exitX=1.014;exitY=0.841;exitDx=0;exitDy=0;exitPerimeter=0;" parent="1" source="f7sNq5c6VwE4PImA_pKB-40" edge="1">
          <mxGeometry width="50" height="50" relative="1" as="geometry">
            <mxPoint x="650" y="290" as="sourcePoint" />
            <mxPoint x="720" y="290" as="targetPoint" />
          </mxGeometry>
        </mxCell>
        <mxCell id="f7sNq5c6VwE4PImA_pKB-52" value="" style="endArrow=none;html=1;rounded=0;entryX=-0.003;entryY=0.384;entryDx=0;entryDy=0;entryPerimeter=0;fillColor=#f8cecc;strokeColor=#b85450;strokeWidth=2;" parent="1" target="f7sNq5c6VwE4PImA_pKB-41" edge="1">
          <mxGeometry width="50" height="50" relative="1" as="geometry">
            <mxPoint x="480" y="240" as="sourcePoint" />
            <mxPoint x="530" y="190" as="targetPoint" />
          </mxGeometry>
        </mxCell>
        <mxCell id="f7sNq5c6VwE4PImA_pKB-53" value="" style="endArrow=classic;html=1;rounded=0;entryX=0.002;entryY=0.801;entryDx=0;entryDy=0;entryPerimeter=0;endFill=1;fillColor=#f8cecc;strokeColor=#b85450;strokeWidth=2;exitX=0.991;exitY=0.421;exitDx=0;exitDy=0;exitPerimeter=0;" parent="1" source="f7sNq5c6VwE4PImA_pKB-40" target="es6ofyouln5sS3Tgfs08-4" edge="1">
          <mxGeometry width="50" height="50" relative="1" as="geometry">
            <mxPoint x="650" y="240" as="sourcePoint" />
            <mxPoint x="710" y="239.8" as="targetPoint" />
          </mxGeometry>
        </mxCell>
        <mxCell id="f7sNq5c6VwE4PImA_pKB-55" style="edgeStyle=orthogonalEdgeStyle;rounded=0;orthogonalLoop=1;jettySize=auto;html=1;entryX=0.005;entryY=0.2;entryDx=0;entryDy=0;entryPerimeter=0;endArrow=none;endFill=0;fillColor=#f8cecc;strokeColor=#b85450;strokeWidth=2;" parent="1" target="f7sNq5c6VwE4PImA_pKB-41" edge="1">
          <mxGeometry relative="1" as="geometry">
            <mxPoint x="650" y="120" as="targetPoint" />
            <mxPoint x="160" y="210" as="sourcePoint" />
            <Array as="points">
              <mxPoint x="160" y="210" />
              <mxPoint x="290" y="210" />
              <mxPoint x="290" y="150" />
              <mxPoint x="540" y="150" />
              <mxPoint x="540" y="216" />
            </Array>
          </mxGeometry>
        </mxCell>
        <mxCell id="f7sNq5c6VwE4PImA_pKB-56" value="" style="endArrow=classic;html=1;rounded=0;exitX=0.999;exitY=0.195;exitDx=0;exitDy=0;exitPerimeter=0;entryX=-0.003;entryY=0.299;entryDx=0;entryDy=0;entryPerimeter=0;fillColor=#f8cecc;strokeColor=#b85450;strokeWidth=2;" parent="1" source="f7sNq5c6VwE4PImA_pKB-41" target="es6ofyouln5sS3Tgfs08-4" edge="1">
          <mxGeometry width="50" height="50" relative="1" as="geometry">
            <mxPoint x="600" y="230" as="sourcePoint" />
            <mxPoint x="650" y="180" as="targetPoint" />
          </mxGeometry>
        </mxCell>
        <mxCell id="f7sNq5c6VwE4PImA_pKB-42" value="" style="group" parent="1" vertex="1" connectable="0">
          <mxGeometry x="555" y="190" width="90" height="130" as="geometry" />
        </mxCell>
        <mxCell id="f7sNq5c6VwE4PImA_pKB-40" value="" style="rounded=1;whiteSpace=wrap;html=1;strokeWidth=2;fillWeight=4;hachureGap=8;hachureAngle=45;fillColor=#fff2cc;sketch=1;strokeColor=#d6b656;" parent="f7sNq5c6VwE4PImA_pKB-42" vertex="1">
          <mxGeometry width="90" height="119.16666666666666" as="geometry" />
        </mxCell>
        <mxCell id="f7sNq5c6VwE4PImA_pKB-41" value="Domain models" style="text;html=1;align=center;verticalAlign=middle;whiteSpace=wrap;rounded=0;fontFamily=Courier New;fontSize=16;" parent="f7sNq5c6VwE4PImA_pKB-42" vertex="1">
          <mxGeometry width="90" height="130" as="geometry" />
        </mxCell>
        <mxCell id="f7sNq5c6VwE4PImA_pKB-61" value="" style="group" parent="1" vertex="1" connectable="0">
          <mxGeometry x="210" y="226.15" width="100" height="60" as="geometry" />
        </mxCell>
        <mxCell id="f7sNq5c6VwE4PImA_pKB-58" value="" style="rounded=1;whiteSpace=wrap;html=1;strokeWidth=2;fillWeight=4;hachureGap=8;hachureAngle=45;fillColor=#f8cecc;sketch=1;strokeColor=#b85450;" parent="f7sNq5c6VwE4PImA_pKB-61" vertex="1">
          <mxGeometry width="100" height="55" as="geometry" />
        </mxCell>
        <mxCell id="f7sNq5c6VwE4PImA_pKB-59" value="&lt;font style=&quot;font-size: 14px;&quot;&gt;Application model&lt;/font&gt;" style="text;html=1;align=center;verticalAlign=middle;whiteSpace=wrap;rounded=0;fontFamily=Courier New;fontSize=16;" parent="f7sNq5c6VwE4PImA_pKB-61" vertex="1">
          <mxGeometry width="100" height="60" as="geometry" />
        </mxCell>
        <mxCell id="f7sNq5c6VwE4PImA_pKB-62" style="edgeStyle=orthogonalEdgeStyle;rounded=0;orthogonalLoop=1;jettySize=auto;html=1;entryX=0;entryY=0.25;entryDx=0;entryDy=0;fillColor=#f8cecc;strokeColor=#b85450;strokeWidth=2;" parent="1" target="z9FG9AvtT7yrs5gUOfZ3-15" edge="1">
          <mxGeometry relative="1" as="geometry">
            <mxPoint x="310" y="242" as="sourcePoint" />
            <Array as="points" />
          </mxGeometry>
        </mxCell>
        <mxCell id="f7sNq5c6VwE4PImA_pKB-30" value="" style="whiteSpace=wrap;html=1;shape=mxgraph.basic.cloud_rect;fillColor=none;strokeWidth=1;container=0;" parent="1" vertex="1">
          <mxGeometry x="-300" y="330" width="160" height="150" as="geometry" />
        </mxCell>
        <mxCell id="f7sNq5c6VwE4PImA_pKB-64" value="" style="group" parent="1" vertex="1" connectable="0">
          <mxGeometry x="-280" y="400" width="120" height="40" as="geometry" />
        </mxCell>
        <mxCell id="z9FG9AvtT7yrs5gUOfZ3-28" value="" style="rounded=1;whiteSpace=wrap;html=1;container=0;" parent="f7sNq5c6VwE4PImA_pKB-64" vertex="1">
          <mxGeometry width="120" height="40.00000000000001" as="geometry" />
        </mxCell>
        <mxCell id="z9FG9AvtT7yrs5gUOfZ3-29" value="&lt;font style=&quot;font-size: 16px;&quot; face=&quot;Courier New&quot;&gt;DB&lt;/font&gt;" style="text;html=1;align=center;verticalAlign=middle;whiteSpace=wrap;rounded=0;container=0;" parent="f7sNq5c6VwE4PImA_pKB-64" vertex="1">
          <mxGeometry width="120" height="40.00000000000001" as="geometry" />
        </mxCell>
        <mxCell id="f7sNq5c6VwE4PImA_pKB-106" style="edgeStyle=orthogonalEdgeStyle;rounded=0;orthogonalLoop=1;jettySize=auto;html=1;exitX=1;exitY=0.5;exitDx=0;exitDy=0;entryX=0;entryY=0.5;entryDx=0;entryDy=0;startArrow=classic;startFill=1;strokeWidth=2;" parent="1" source="z9FG9AvtT7yrs5gUOfZ3-26" target="f7sNq5c6VwE4PImA_pKB-97" edge="1">
          <mxGeometry relative="1" as="geometry" />
        </mxCell>
        <mxCell id="z9FG9AvtT7yrs5gUOfZ3-26" value="&lt;font style=&quot;font-size: 16px;&quot; face=&quot;Courier New&quot;&gt;APIs/libs&lt;/font&gt;" style="rounded=1;whiteSpace=wrap;html=1;container=0;" parent="1" vertex="1">
          <mxGeometry x="-280" y="342.31" width="120" height="40" as="geometry" />
        </mxCell>
        <mxCell id="f7sNq5c6VwE4PImA_pKB-24" value="" style="group;fontStyle=4" parent="1" vertex="1" connectable="0">
          <mxGeometry x="40" y="200" width="120" height="60" as="geometry" />
        </mxCell>
        <mxCell id="f7sNq5c6VwE4PImA_pKB-25" value="" style="rounded=0;whiteSpace=wrap;html=1;" parent="f7sNq5c6VwE4PImA_pKB-24" vertex="1">
          <mxGeometry width="120" height="60" as="geometry" />
        </mxCell>
        <mxCell id="f7sNq5c6VwE4PImA_pKB-26" value="&lt;font face=&quot;Courier New&quot;&gt;&lt;span style=&quot;font-size: 16px;&quot;&gt;Handlers&lt;/span&gt;&lt;/font&gt;" style="text;html=1;align=center;verticalAlign=middle;whiteSpace=wrap;rounded=0;" parent="f7sNq5c6VwE4PImA_pKB-24" vertex="1">
          <mxGeometry width="120" height="60" as="geometry" />
        </mxCell>
        <mxCell id="z9FG9AvtT7yrs5gUOfZ3-13" value="" style="group;fontStyle=4" parent="1" vertex="1" connectable="0">
          <mxGeometry x="360" y="219.17000000000002" width="120" height="90" as="geometry" />
        </mxCell>
        <mxCell id="z9FG9AvtT7yrs5gUOfZ3-14" value="" style="rounded=0;whiteSpace=wrap;html=1;" parent="z9FG9AvtT7yrs5gUOfZ3-13" vertex="1">
          <mxGeometry width="120" height="90" as="geometry" />
        </mxCell>
        <mxCell id="z9FG9AvtT7yrs5gUOfZ3-15" value="&lt;font style=&quot;font-size: 16px;&quot; face=&quot;Courier New&quot;&gt;UseCases&lt;/font&gt;" style="text;html=1;align=center;verticalAlign=middle;whiteSpace=wrap;rounded=0;" parent="z9FG9AvtT7yrs5gUOfZ3-13" vertex="1">
          <mxGeometry width="120" height="90" as="geometry" />
        </mxCell>
        <mxCell id="f7sNq5c6VwE4PImA_pKB-85" style="edgeStyle=orthogonalEdgeStyle;rounded=0;orthogonalLoop=1;jettySize=auto;html=1;entryX=0;entryY=0.5;entryDx=0;entryDy=0;startArrow=classic;startFill=1;strokeWidth=2;" parent="1" target="f7sNq5c6VwE4PImA_pKB-26" edge="1">
          <mxGeometry relative="1" as="geometry">
            <mxPoint x="-150" y="230" as="sourcePoint" />
            <Array as="points" />
          </mxGeometry>
        </mxCell>
        <mxCell id="f7sNq5c6VwE4PImA_pKB-87" style="edgeStyle=orthogonalEdgeStyle;rounded=0;orthogonalLoop=1;jettySize=auto;html=1;entryX=0;entryY=0.5;entryDx=0;entryDy=0;startArrow=classic;startFill=1;strokeWidth=2;" parent="1" source="z9FG9AvtT7yrs5gUOfZ3-29" target="f7sNq5c6VwE4PImA_pKB-102" edge="1">
          <mxGeometry relative="1" as="geometry" />
        </mxCell>
        <mxCell id="f7sNq5c6VwE4PImA_pKB-90" value="" style="sketch=0;outlineConnect=0;fontColor=#232F3E;gradientColor=none;fillColor=#232F3D;strokeColor=none;dashed=0;verticalLabelPosition=bottom;verticalAlign=top;align=center;html=1;fontSize=12;fontStyle=0;aspect=fixed;pointerEvents=1;shape=mxgraph.aws4.user;" parent="1" vertex="1">
          <mxGeometry x="-260" y="170" width="100" height="100" as="geometry" />
        </mxCell>
        <mxCell id="f7sNq5c6VwE4PImA_pKB-91" value="&lt;font face=&quot;Courier New&quot; style=&quot;font-size: 20px;&quot;&gt;&lt;i&gt;Outer world&lt;/i&gt;&lt;/font&gt;" style="text;html=1;align=center;verticalAlign=middle;whiteSpace=wrap;rounded=0;" parent="1" vertex="1">
          <mxGeometry x="-320" y="440" width="200" height="40" as="geometry" />
        </mxCell>
        <mxCell id="f7sNq5c6VwE4PImA_pKB-92" value="&lt;font face=&quot;Courier New&quot; style=&quot;font-size: 20px;&quot;&gt;&lt;i&gt;End user&lt;/i&gt;&lt;/font&gt;" style="text;html=1;align=center;verticalAlign=middle;whiteSpace=wrap;rounded=0;" parent="1" vertex="1">
          <mxGeometry x="-260" y="275" width="100" height="40" as="geometry" />
        </mxCell>
        <mxCell id="f7sNq5c6VwE4PImA_pKB-103" value="" style="group" parent="1" vertex="1" connectable="0">
          <mxGeometry x="-110" y="342.31" width="90" height="41.15" as="geometry" />
        </mxCell>
        <mxCell id="f7sNq5c6VwE4PImA_pKB-96" value="" style="rounded=1;whiteSpace=wrap;html=1;strokeWidth=2;fillWeight=4;hachureGap=8;hachureAngle=45;fillColor=#d5e8d4;sketch=1;strokeColor=#82b366;" parent="f7sNq5c6VwE4PImA_pKB-103" vertex="1">
          <mxGeometry width="90" height="41.14999999999999" as="geometry" />
        </mxCell>
        <mxCell id="f7sNq5c6VwE4PImA_pKB-97" value="Service models" style="text;html=1;align=center;verticalAlign=middle;whiteSpace=wrap;rounded=0;fontFamily=Courier New;fontSize=16;" parent="f7sNq5c6VwE4PImA_pKB-103" vertex="1">
          <mxGeometry width="90" height="41.14999999999999" as="geometry" />
        </mxCell>
        <mxCell id="f7sNq5c6VwE4PImA_pKB-104" value="" style="group" parent="1" vertex="1" connectable="0">
          <mxGeometry x="-110" y="400" width="90" height="40" as="geometry" />
        </mxCell>
        <mxCell id="f7sNq5c6VwE4PImA_pKB-101" value="" style="rounded=1;whiteSpace=wrap;html=1;strokeWidth=2;fillWeight=4;hachureGap=8;hachureAngle=45;fillColor=#d5e8d4;sketch=1;strokeColor=#82b366;" parent="f7sNq5c6VwE4PImA_pKB-104" vertex="1">
          <mxGeometry width="90" height="40" as="geometry" />
        </mxCell>
        <mxCell id="f7sNq5c6VwE4PImA_pKB-102" value="DB models" style="text;html=1;align=center;verticalAlign=middle;whiteSpace=wrap;rounded=0;fontFamily=Courier New;fontSize=16;" parent="f7sNq5c6VwE4PImA_pKB-104" vertex="1">
          <mxGeometry width="90" height="40" as="geometry" />
        </mxCell>
        <mxCell id="f7sNq5c6VwE4PImA_pKB-105" style="edgeStyle=orthogonalEdgeStyle;rounded=0;orthogonalLoop=1;jettySize=auto;html=1;exitX=1;exitY=0.5;exitDx=0;exitDy=0;entryX=0;entryY=0.5;entryDx=0;entryDy=0;startArrow=classic;startFill=1;strokeWidth=2;" parent="1" source="f7sNq5c6VwE4PImA_pKB-102" target="z9FG9AvtT7yrs5gUOfZ3-44" edge="1">
          <mxGeometry relative="1" as="geometry" />
        </mxCell>
        <mxCell id="f7sNq5c6VwE4PImA_pKB-107" style="edgeStyle=orthogonalEdgeStyle;rounded=0;orthogonalLoop=1;jettySize=auto;html=1;entryX=0;entryY=0.5;entryDx=0;entryDy=0;startArrow=classic;startFill=1;strokeWidth=2;" parent="1" source="f7sNq5c6VwE4PImA_pKB-97" target="z9FG9AvtT7yrs5gUOfZ3-41" edge="1">
          <mxGeometry relative="1" as="geometry" />
        </mxCell>
        <mxCell id="f7sNq5c6VwE4PImA_pKB-108" value="" style="group;rotation=0;" parent="1" vertex="1" connectable="0">
          <mxGeometry x="850" y="320" width="100" height="50" as="geometry" />
        </mxCell>
        <mxCell id="f7sNq5c6VwE4PImA_pKB-109" value="" style="rounded=1;whiteSpace=wrap;html=1;strokeWidth=2;fillWeight=4;hachureGap=8;hachureAngle=45;fillColor=#fff2cc;sketch=1;strokeColor=#d6b656;rotation=0;" parent="f7sNq5c6VwE4PImA_pKB-108" vertex="1">
          <mxGeometry width="100" height="45.83333333333333" as="geometry" />
        </mxCell>
        <mxCell id="f7sNq5c6VwE4PImA_pKB-110" value="&lt;font style=&quot;font-size: 14px;&quot;&gt;Persistence models&lt;/font&gt;" style="text;html=1;align=center;verticalAlign=middle;whiteSpace=wrap;rounded=0;fontFamily=Courier New;fontSize=16;rotation=0;" parent="f7sNq5c6VwE4PImA_pKB-108" vertex="1">
          <mxGeometry width="100" height="50" as="geometry" />
        </mxCell>
        <mxCell id="f7sNq5c6VwE4PImA_pKB-113" style="edgeStyle=orthogonalEdgeStyle;rounded=0;orthogonalLoop=1;jettySize=auto;html=1;exitX=0.5;exitY=1;exitDx=0;exitDy=0;entryX=1;entryY=0.5;entryDx=0;entryDy=0;fillColor=#f8cecc;strokeColor=#b85450;strokeWidth=2;" parent="1" source="f7sNq5c6VwE4PImA_pKB-110" target="es6ofyouln5sS3Tgfs08-13" edge="1">
          <mxGeometry relative="1" as="geometry">
            <Array as="points">
              <mxPoint x="900" y="385" />
            </Array>
          </mxGeometry>
        </mxCell>
      </root>
    </mxGraphModel>
  </diagram>
  <diagram id="2rPliAVYNxOwH9sSfM4n" name="pkg">
    <mxGraphModel dx="910" dy="505" grid="1" gridSize="10" guides="1" tooltips="1" connect="1" arrows="1" fold="1" page="1" pageScale="1" pageWidth="850" pageHeight="1100" math="0" shadow="0">
      <root>
        <mxCell id="0" />
        <mxCell id="1" parent="0" />
        <mxCell id="BLQ2WIfa0VcRDc5NV7BI-1" value="" style="rounded=1;whiteSpace=wrap;html=1;fillColor=#f5f5f5;strokeColor=#666666;fillStyle=auto;fontFamily=Courier New;fontSize=18;fontColor=#333333;" parent="1" vertex="1">
          <mxGeometry x="360" y="150" width="200" height="270" as="geometry" />
        </mxCell>
        <mxCell id="BLQ2WIfa0VcRDc5NV7BI-2" value="" style="group;align=left;fontFamily=Courier New;fontSize=18;" parent="1" vertex="1" connectable="0">
          <mxGeometry x="370" y="210" width="150" height="30" as="geometry" />
        </mxCell>
        <mxCell id="BLQ2WIfa0VcRDc5NV7BI-3" value="" style="image;aspect=fixed;html=1;points=[];align=center;fontSize=18;image=img/lib/azure2/general/Folder_Blank.svg;fontFamily=Courier New;" parent="BLQ2WIfa0VcRDc5NV7BI-2" vertex="1">
          <mxGeometry y="5" width="24.64" height="20" as="geometry" />
        </mxCell>
        <mxCell id="BLQ2WIfa0VcRDc5NV7BI-4" value="&lt;font style=&quot;font-size: 18px;&quot;&gt;domain&lt;/font&gt;" style="text;html=1;align=left;verticalAlign=middle;whiteSpace=wrap;rounded=0;fontFamily=Courier New;fontSize=18;" parent="BLQ2WIfa0VcRDc5NV7BI-2" vertex="1">
          <mxGeometry x="30" width="90" height="30" as="geometry" />
        </mxCell>
        <mxCell id="BLQ2WIfa0VcRDc5NV7BI-8" value="" style="group;align=left;fontFamily=Courier New;fontSize=18;" parent="1" vertex="1" connectable="0">
          <mxGeometry x="370" y="250" width="170" height="30" as="geometry" />
        </mxCell>
        <mxCell id="BLQ2WIfa0VcRDc5NV7BI-9" value="" style="image;aspect=fixed;html=1;points=[];align=center;fontSize=18;image=img/lib/azure2/general/Folder_Blank.svg;fontFamily=Courier New;" parent="BLQ2WIfa0VcRDc5NV7BI-8" vertex="1">
          <mxGeometry y="5" width="24.64" height="20" as="geometry" />
        </mxCell>
        <mxCell id="BLQ2WIfa0VcRDc5NV7BI-10" value="application" style="text;html=1;align=left;verticalAlign=middle;whiteSpace=wrap;rounded=0;fontFamily=Courier New;fontSize=18;" parent="BLQ2WIfa0VcRDc5NV7BI-8" vertex="1">
          <mxGeometry x="30" width="140" height="30" as="geometry" />
        </mxCell>
        <mxCell id="DP6XLv8N6wMEyWV-CL1C-1" value="pkg" style="text;html=1;align=center;verticalAlign=middle;whiteSpace=wrap;rounded=0;fontFamily=Courier New;fontSize=22;" parent="1" vertex="1">
          <mxGeometry x="430" y="160" width="60" height="30" as="geometry" />
        </mxCell>
        <mxCell id="DP6XLv8N6wMEyWV-CL1C-2" value="" style="group;align=left;fontFamily=Courier New;fontSize=18;" parent="1" vertex="1" connectable="0">
          <mxGeometry x="370" y="290" width="190" height="30" as="geometry" />
        </mxCell>
        <mxCell id="DP6XLv8N6wMEyWV-CL1C-3" value="" style="image;aspect=fixed;html=1;points=[];align=center;fontSize=18;image=img/lib/azure2/general/Folder_Blank.svg;fontFamily=Courier New;" parent="DP6XLv8N6wMEyWV-CL1C-2" vertex="1">
          <mxGeometry y="5" width="24.64" height="20" as="geometry" />
        </mxCell>
        <mxCell id="DP6XLv8N6wMEyWV-CL1C-4" value="infrastructure" style="text;html=1;align=left;verticalAlign=middle;whiteSpace=wrap;rounded=0;fontFamily=Courier New;fontSize=18;" parent="DP6XLv8N6wMEyWV-CL1C-2" vertex="1">
          <mxGeometry x="30" width="160" height="30" as="geometry" />
        </mxCell>
        <mxCell id="DP6XLv8N6wMEyWV-CL1C-5" value="" style="group;align=left;fontFamily=Courier New;fontSize=18;" parent="1" vertex="1" connectable="0">
          <mxGeometry x="370" y="330" width="170" height="30" as="geometry" />
        </mxCell>
        <mxCell id="DP6XLv8N6wMEyWV-CL1C-6" value="" style="image;aspect=fixed;html=1;points=[];align=center;fontSize=18;image=img/lib/azure2/general/Folder_Blank.svg;fontFamily=Courier New;" parent="DP6XLv8N6wMEyWV-CL1C-5" vertex="1">
          <mxGeometry y="5" width="24.64" height="20" as="geometry" />
        </mxCell>
        <mxCell id="DP6XLv8N6wMEyWV-CL1C-7" value="presentation" style="text;html=1;align=left;verticalAlign=middle;whiteSpace=wrap;rounded=0;fontFamily=Courier New;fontSize=18;" parent="DP6XLv8N6wMEyWV-CL1C-5" vertex="1">
          <mxGeometry x="30" width="140" height="30" as="geometry" />
        </mxCell>
        <mxCell id="DP6XLv8N6wMEyWV-CL1C-9" value="" style="group;align=left;fontFamily=Courier New;fontSize=18;" parent="1" vertex="1" connectable="0">
          <mxGeometry x="370" y="370" width="150" height="30" as="geometry" />
        </mxCell>
        <mxCell id="DP6XLv8N6wMEyWV-CL1C-10" value="" style="image;aspect=fixed;html=1;points=[];align=center;fontSize=18;image=img/lib/azure2/general/Folder_Blank.svg;fontFamily=Courier New;" parent="DP6XLv8N6wMEyWV-CL1C-9" vertex="1">
          <mxGeometry y="5" width="24.64" height="20" as="geometry" />
        </mxCell>
        <mxCell id="DP6XLv8N6wMEyWV-CL1C-11" value="&lt;font style=&quot;font-size: 18px;&quot;&gt;core&lt;/font&gt;" style="text;html=1;align=left;verticalAlign=middle;whiteSpace=wrap;rounded=0;fontFamily=Courier New;fontSize=18;" parent="DP6XLv8N6wMEyWV-CL1C-9" vertex="1">
          <mxGeometry x="30" width="90" height="30" as="geometry" />
        </mxCell>
        <mxCell id="DP6XLv8N6wMEyWV-CL1C-14" value="" style="endArrow=none;dashed=1;html=1;rounded=0;exitX=0.008;exitY=0.816;exitDx=0;exitDy=0;exitPerimeter=0;" parent="1" source="BLQ2WIfa0VcRDc5NV7BI-1" edge="1">
          <mxGeometry width="50" height="50" relative="1" as="geometry">
            <mxPoint x="430" y="350" as="sourcePoint" />
            <mxPoint x="560" y="370" as="targetPoint" />
          </mxGeometry>
        </mxCell>
      </root>
    </mxGraphModel>
  </diagram>
  <diagram id="oH8EHrjzeEzjqsaljAfe" name="Domain">
    <mxGraphModel dx="910" dy="505" grid="1" gridSize="10" guides="1" tooltips="1" connect="1" arrows="1" fold="1" page="1" pageScale="1" pageWidth="850" pageHeight="1100" math="0" shadow="0">
      <root>
        <mxCell id="0" />
        <mxCell id="1" parent="0" />
        <mxCell id="kZySp3uDaBFxDOXtGZvL-3" value="" style="rounded=1;whiteSpace=wrap;html=1;fillColor=#fff2cc;strokeColor=#d6b656;fillStyle=auto;gradientColor=none;fontFamily=Courier New;fontSize=18;" parent="1" vertex="1">
          <mxGeometry x="160" y="70" width="200" height="270" as="geometry" />
        </mxCell>
        <mxCell id="kZySp3uDaBFxDOXtGZvL-7" value="&lt;font style=&quot;font-size: 22px;&quot;&gt;Domain&lt;/font&gt;" style="text;html=1;align=center;verticalAlign=middle;whiteSpace=wrap;rounded=0;fontFamily=Courier New;fontSize=18;" parent="1" vertex="1">
          <mxGeometry x="160" y="80" width="200" height="40" as="geometry" />
        </mxCell>
        <mxCell id="kZySp3uDaBFxDOXtGZvL-11" value="" style="group;align=left;fontFamily=Courier New;fontSize=18;" parent="1" vertex="1" connectable="0">
          <mxGeometry x="170" y="130" width="150" height="30" as="geometry" />
        </mxCell>
        <mxCell id="kZySp3uDaBFxDOXtGZvL-5" value="" style="image;aspect=fixed;html=1;points=[];align=center;fontSize=18;image=img/lib/azure2/general/Folder_Blank.svg;fontFamily=Courier New;" parent="kZySp3uDaBFxDOXtGZvL-11" vertex="1">
          <mxGeometry y="5" width="24.64" height="20" as="geometry" />
        </mxCell>
        <mxCell id="kZySp3uDaBFxDOXtGZvL-10" value="&lt;font style=&quot;font-size: 18px;&quot;&gt;Entity&lt;/font&gt;" style="text;html=1;align=left;verticalAlign=middle;whiteSpace=wrap;rounded=0;fontFamily=Courier New;fontSize=18;" parent="kZySp3uDaBFxDOXtGZvL-11" vertex="1">
          <mxGeometry x="30" width="90" height="30" as="geometry" />
        </mxCell>
        <mxCell id="kZySp3uDaBFxDOXtGZvL-24" value="" style="group;align=left;fontFamily=Courier New;fontSize=18;" parent="1" vertex="1" connectable="0">
          <mxGeometry x="170" y="170" width="160" height="30" as="geometry" />
        </mxCell>
        <mxCell id="kZySp3uDaBFxDOXtGZvL-25" value="" style="image;aspect=fixed;html=1;points=[];align=center;fontSize=18;image=img/lib/azure2/general/Folder_Blank.svg;fontFamily=Courier New;" parent="kZySp3uDaBFxDOXtGZvL-24" vertex="1">
          <mxGeometry y="5" width="24.64" height="20" as="geometry" />
        </mxCell>
        <mxCell id="kZySp3uDaBFxDOXtGZvL-26" value="&lt;font style=&quot;font-size: 18px;&quot;&gt;Persistence&lt;/font&gt;" style="text;html=1;align=left;verticalAlign=middle;whiteSpace=wrap;rounded=0;fontFamily=Courier New;fontSize=18;" parent="kZySp3uDaBFxDOXtGZvL-24" vertex="1">
          <mxGeometry x="32" width="128" height="30" as="geometry" />
        </mxCell>
        <mxCell id="kZySp3uDaBFxDOXtGZvL-30" value="" style="group;align=left;fontFamily=Courier New;fontSize=18;" parent="1" vertex="1" connectable="0">
          <mxGeometry x="170" y="250" width="150" height="30" as="geometry" />
        </mxCell>
        <mxCell id="kZySp3uDaBFxDOXtGZvL-31" value="" style="image;aspect=fixed;html=1;points=[];align=center;fontSize=18;image=img/lib/azure2/general/Folder_Blank.svg;fontFamily=Courier New;" parent="kZySp3uDaBFxDOXtGZvL-30" vertex="1">
          <mxGeometry y="5" width="20.533333333333335" height="16.666666666666668" as="geometry" />
        </mxCell>
        <mxCell id="kZySp3uDaBFxDOXtGZvL-32" value="&lt;font style=&quot;font-size: 18px;&quot;&gt;&amp;nbsp;Transactor&lt;/font&gt;" style="text;html=1;align=left;verticalAlign=middle;whiteSpace=wrap;rounded=0;fontFamily=Courier New;fontSize=18;" parent="kZySp3uDaBFxDOXtGZvL-30" vertex="1">
          <mxGeometry x="20.533333333333335" width="129.4666666666667" height="30" as="geometry" />
        </mxCell>
        <mxCell id="kZySp3uDaBFxDOXtGZvL-33" value="" style="group;align=left;fontFamily=Courier New;fontSize=18;" parent="1" vertex="1" connectable="0">
          <mxGeometry x="170" y="290" width="150" height="30" as="geometry" />
        </mxCell>
        <mxCell id="kZySp3uDaBFxDOXtGZvL-34" value="" style="image;aspect=fixed;html=1;points=[];align=center;fontSize=18;image=img/lib/azure2/general/Folder_Blank.svg;fontFamily=Courier New;" parent="kZySp3uDaBFxDOXtGZvL-33" vertex="1">
          <mxGeometry y="5" width="24.64" height="20" as="geometry" />
        </mxCell>
        <mxCell id="kZySp3uDaBFxDOXtGZvL-35" value="&lt;font style=&quot;font-size: 18px;&quot;&gt;Mock&lt;/font&gt;" style="text;html=1;align=left;verticalAlign=middle;whiteSpace=wrap;rounded=0;fontFamily=Courier New;fontSize=18;" parent="kZySp3uDaBFxDOXtGZvL-33" vertex="1">
          <mxGeometry x="30" width="120" height="30" as="geometry" />
        </mxCell>
        <mxCell id="kZySp3uDaBFxDOXtGZvL-41" value="" style="curved=1;endArrow=none;html=1;rounded=0;endFill=0;strokeWidth=2;fillColor=#dae8fc;strokeColor=#6c8ebf;fontFamily=Courier New;fontSize=18;" parent="1" source="kZySp3uDaBFxDOXtGZvL-34" edge="1">
          <mxGeometry width="50" height="50" relative="1" as="geometry">
            <mxPoint x="40" y="310" as="sourcePoint" />
            <mxPoint x="80" y="220" as="targetPoint" />
            <Array as="points">
              <mxPoint x="60" y="300" />
              <mxPoint x="50" y="220" />
            </Array>
          </mxGeometry>
        </mxCell>
        <mxCell id="kZySp3uDaBFxDOXtGZvL-45" value="" style="curved=1;endArrow=classic;html=1;rounded=0;strokeWidth=2;fillColor=#dae8fc;strokeColor=#6c8ebf;fontFamily=Courier New;fontSize=18;" parent="1" target="kZySp3uDaBFxDOXtGZvL-25" edge="1">
          <mxGeometry width="50" height="50" relative="1" as="geometry">
            <mxPoint x="80" y="220" as="sourcePoint" />
            <mxPoint x="130" y="170" as="targetPoint" />
            <Array as="points">
              <mxPoint x="130" y="220" />
            </Array>
          </mxGeometry>
        </mxCell>
        <mxCell id="kZySp3uDaBFxDOXtGZvL-47" value="" style="curved=1;endArrow=classic;html=1;rounded=0;strokeWidth=2;fillColor=#dae8fc;strokeColor=#6c8ebf;fontFamily=Courier New;fontSize=18;entryX=0.049;entryY=0.457;entryDx=0;entryDy=0;entryPerimeter=0;" parent="1" target="DjaIVL0OSM7cJ6hhQaMM-2" edge="1">
          <mxGeometry width="50" height="50" relative="1" as="geometry">
            <mxPoint x="80" y="220" as="sourcePoint" />
            <mxPoint x="170" y="221.70998632010946" as="targetPoint" />
            <Array as="points">
              <mxPoint x="130" y="220" />
              <mxPoint x="150" y="220" />
            </Array>
          </mxGeometry>
        </mxCell>
        <mxCell id="kZySp3uDaBFxDOXtGZvL-48" value="" style="curved=1;endArrow=classic;html=1;rounded=0;strokeWidth=2;fillColor=#dae8fc;strokeColor=#6c8ebf;fontFamily=Courier New;fontSize=18;" parent="1" target="kZySp3uDaBFxDOXtGZvL-31" edge="1">
          <mxGeometry width="50" height="50" relative="1" as="geometry">
            <mxPoint x="90" y="220" as="sourcePoint" />
            <mxPoint x="140" y="170" as="targetPoint" />
            <Array as="points">
              <mxPoint x="140" y="220" />
              <mxPoint x="130" y="270" />
            </Array>
          </mxGeometry>
        </mxCell>
        <mxCell id="kZySp3uDaBFxDOXtGZvL-54" value="" style="curved=1;endArrow=none;html=1;rounded=0;exitX=1;exitY=0.5;exitDx=0;exitDy=0;endFill=0;fillColor=#f8cecc;strokeColor=#b85450;strokeWidth=2;fontFamily=Courier New;fontSize=18;" parent="1" source="kZySp3uDaBFxDOXtGZvL-10" edge="1">
          <mxGeometry width="50" height="50" relative="1" as="geometry">
            <mxPoint x="340" y="150" as="sourcePoint" />
            <mxPoint x="400" y="210" as="targetPoint" />
            <Array as="points">
              <mxPoint x="400" y="130" />
              <mxPoint x="430" y="170" />
            </Array>
          </mxGeometry>
        </mxCell>
        <mxCell id="kZySp3uDaBFxDOXtGZvL-55" value="" style="curved=1;endArrow=none;html=1;rounded=0;startArrow=classic;startFill=1;endFill=0;fillColor=#f8cecc;strokeColor=#b85450;strokeWidth=2;fontFamily=Courier New;fontSize=18;" parent="1" source="kZySp3uDaBFxDOXtGZvL-32" edge="1">
          <mxGeometry width="50" height="50" relative="1" as="geometry">
            <mxPoint x="380" y="270" as="sourcePoint" />
            <mxPoint x="400" y="210" as="targetPoint" />
            <Array as="points">
              <mxPoint x="400" y="260" />
            </Array>
          </mxGeometry>
        </mxCell>
        <mxCell id="kZySp3uDaBFxDOXtGZvL-56" value="" style="curved=1;endArrow=none;html=1;rounded=0;exitX=1;exitY=0.5;exitDx=0;exitDy=0;startArrow=classic;startFill=1;endFill=0;strokeWidth=2;fillColor=#f8cecc;strokeColor=#b85450;fontFamily=Courier New;fontSize=18;" parent="1" source="DjaIVL0OSM7cJ6hhQaMM-3" edge="1">
          <mxGeometry width="50" height="50" relative="1" as="geometry">
            <mxPoint x="290" y="225" as="sourcePoint" />
            <mxPoint x="400" y="210" as="targetPoint" />
            <Array as="points">
              <mxPoint x="350" y="225" />
            </Array>
          </mxGeometry>
        </mxCell>
        <mxCell id="kZySp3uDaBFxDOXtGZvL-57" value="" style="curved=1;endArrow=classic;html=1;rounded=0;entryX=1;entryY=0.5;entryDx=0;entryDy=0;fillColor=#f8cecc;strokeColor=#b85450;strokeWidth=2;fontFamily=Courier New;fontSize=18;" parent="1" target="kZySp3uDaBFxDOXtGZvL-26" edge="1">
          <mxGeometry width="50" height="50" relative="1" as="geometry">
            <mxPoint x="400" y="210" as="sourcePoint" />
            <mxPoint x="450" y="160" as="targetPoint" />
            <Array as="points">
              <mxPoint x="400" y="160" />
            </Array>
          </mxGeometry>
        </mxCell>
        <mxCell id="kZySp3uDaBFxDOXtGZvL-59" value="" style="endArrow=classic;html=1;rounded=0;fillColor=#dae8fc;strokeColor=#6c8ebf;strokeWidth=2;fontFamily=Courier New;fontSize=18;" parent="1" edge="1">
          <mxGeometry width="50" height="50" relative="1" as="geometry">
            <mxPoint x="105" y="370" as="sourcePoint" />
            <mxPoint x="225" y="370" as="targetPoint" />
          </mxGeometry>
        </mxCell>
        <mxCell id="kZySp3uDaBFxDOXtGZvL-60" value="Implements" style="text;html=1;align=center;verticalAlign=middle;whiteSpace=wrap;rounded=0;fontSize=18;fontFamily=Courier New;" parent="1" vertex="1">
          <mxGeometry x="105" y="380" width="120" height="30" as="geometry" />
        </mxCell>
        <mxCell id="kZySp3uDaBFxDOXtGZvL-61" value="" style="endArrow=classic;html=1;rounded=0;fillColor=#f8cecc;strokeColor=#b85450;strokeWidth=2;fontFamily=Courier New;fontSize=18;" parent="1" edge="1">
          <mxGeometry width="50" height="50" relative="1" as="geometry">
            <mxPoint x="265" y="370" as="sourcePoint" />
            <mxPoint x="385" y="370" as="targetPoint" />
          </mxGeometry>
        </mxCell>
        <mxCell id="kZySp3uDaBFxDOXtGZvL-62" value="Use" style="text;html=1;align=center;verticalAlign=middle;whiteSpace=wrap;rounded=0;fontSize=18;fontFamily=Courier New;" parent="1" vertex="1">
          <mxGeometry x="265" y="380" width="120" height="30" as="geometry" />
        </mxCell>
        <mxCell id="DjaIVL0OSM7cJ6hhQaMM-1" value="" style="group;align=left;fontFamily=Courier New;fontSize=18;" parent="1" vertex="1" connectable="0">
          <mxGeometry x="170" y="210" width="160" height="30" as="geometry" />
        </mxCell>
        <mxCell id="DjaIVL0OSM7cJ6hhQaMM-2" value="" style="image;aspect=fixed;html=1;points=[];align=center;fontSize=18;image=img/lib/azure2/general/Folder_Blank.svg;fontFamily=Courier New;" parent="DjaIVL0OSM7cJ6hhQaMM-1" vertex="1">
          <mxGeometry y="5" width="24.64" height="20" as="geometry" />
        </mxCell>
        <mxCell id="DjaIVL0OSM7cJ6hhQaMM-3" value="&lt;font style=&quot;font-size: 18px;&quot;&gt;Service&lt;/font&gt;" style="text;html=1;align=left;verticalAlign=middle;whiteSpace=wrap;rounded=0;fontFamily=Courier New;fontSize=18;" parent="DjaIVL0OSM7cJ6hhQaMM-1" vertex="1">
          <mxGeometry x="32" width="88" height="30" as="geometry" />
        </mxCell>
      </root>
    </mxGraphModel>
  </diagram>
  <diagram id="z5j7AOvFWE8u8iP0vzfi" name="Persistence">
    <mxGraphModel dx="728" dy="404" grid="1" gridSize="10" guides="1" tooltips="1" connect="1" arrows="1" fold="1" page="1" pageScale="1" pageWidth="850" pageHeight="1100" math="0" shadow="0">
      <root>
        <mxCell id="0" />
        <mxCell id="1" parent="0" />
        <mxCell id="Yuo3M-x58uWLVYmgvqBs-1" value="" style="rounded=1;whiteSpace=wrap;html=1;fillColor=#fff2cc;strokeColor=#d6b656;fillStyle=auto;gradientColor=none;fontFamily=Courier New;fontSize=18;" parent="1" vertex="1">
          <mxGeometry x="320" y="40" width="210" height="190" as="geometry" />
        </mxCell>
        <mxCell id="Yuo3M-x58uWLVYmgvqBs-2" value="" style="group;align=left;fontFamily=Courier New;fontSize=18;" parent="1" vertex="1" connectable="0">
          <mxGeometry x="335" y="100" width="150" height="30" as="geometry" />
        </mxCell>
        <mxCell id="Yuo3M-x58uWLVYmgvqBs-3" value="" style="image;aspect=fixed;html=1;points=[];align=center;fontSize=18;image=img/lib/azure2/general/Folder_Blank.svg;fontFamily=Courier New;" parent="Yuo3M-x58uWLVYmgvqBs-2" vertex="1">
          <mxGeometry y="5" width="24.64" height="20" as="geometry" />
        </mxCell>
        <mxCell id="Yuo3M-x58uWLVYmgvqBs-4" value="&lt;font style=&quot;font-size: 18px;&quot;&gt;Command&lt;/font&gt;" style="text;html=1;align=left;verticalAlign=middle;whiteSpace=wrap;rounded=0;fontFamily=Courier New;fontSize=18;" parent="Yuo3M-x58uWLVYmgvqBs-2" vertex="1">
          <mxGeometry x="30" width="90" height="30" as="geometry" />
        </mxCell>
        <mxCell id="Yuo3M-x58uWLVYmgvqBs-8" value="" style="group;align=left;fontFamily=Courier New;fontSize=18;" parent="1" vertex="1" connectable="0">
          <mxGeometry x="335" y="140" width="150" height="30" as="geometry" />
        </mxCell>
        <mxCell id="Yuo3M-x58uWLVYmgvqBs-9" value="" style="image;aspect=fixed;html=1;points=[];align=center;fontSize=18;image=img/lib/azure2/general/Folder_Blank.svg;fontFamily=Courier New;" parent="Yuo3M-x58uWLVYmgvqBs-8" vertex="1">
          <mxGeometry y="5" width="24.64" height="20" as="geometry" />
        </mxCell>
        <mxCell id="Yuo3M-x58uWLVYmgvqBs-10" value="Query" style="text;html=1;align=left;verticalAlign=middle;whiteSpace=wrap;rounded=0;fontFamily=Courier New;fontSize=18;" parent="Yuo3M-x58uWLVYmgvqBs-8" vertex="1">
          <mxGeometry x="30" width="90" height="30" as="geometry" />
        </mxCell>
        <mxCell id="Yuo3M-x58uWLVYmgvqBs-7" value="&lt;font style=&quot;font-size: 18px;&quot;&gt;Domain/Persistence&lt;/font&gt;" style="text;html=1;align=left;verticalAlign=middle;whiteSpace=wrap;rounded=0;fontFamily=Courier New;fontSize=18;" parent="1" vertex="1">
          <mxGeometry x="325" y="50" width="195" height="30" as="geometry" />
        </mxCell>
        <mxCell id="GfSD8xjZ4OgBREAjvpvi-1" value="" style="group;align=left;fontFamily=Courier New;fontSize=18;" vertex="1" connectable="0" parent="1">
          <mxGeometry x="335" y="180" width="150" height="30" as="geometry" />
        </mxCell>
        <mxCell id="GfSD8xjZ4OgBREAjvpvi-2" value="" style="image;aspect=fixed;html=1;points=[];align=center;fontSize=18;image=img/lib/azure2/general/Folder_Blank.svg;fontFamily=Courier New;" vertex="1" parent="GfSD8xjZ4OgBREAjvpvi-1">
          <mxGeometry y="5" width="24.64" height="20" as="geometry" />
        </mxCell>
        <mxCell id="GfSD8xjZ4OgBREAjvpvi-3" value="Model" style="text;html=1;align=left;verticalAlign=middle;whiteSpace=wrap;rounded=0;fontFamily=Courier New;fontSize=18;" vertex="1" parent="GfSD8xjZ4OgBREAjvpvi-1">
          <mxGeometry x="30" width="90" height="30" as="geometry" />
        </mxCell>
      </root>
    </mxGraphModel>
  </diagram>
  <diagram id="0BSfITltmhd0lcDZVRLY" name="Core">
    <mxGraphModel dx="910" dy="505" grid="1" gridSize="10" guides="1" tooltips="1" connect="1" arrows="1" fold="1" page="1" pageScale="1" pageWidth="827" pageHeight="1169" math="0" shadow="0">
      <root>
        <mxCell id="0" />
        <mxCell id="1" parent="0" />
        <mxCell id="sPl0X7sWRRIbJbTLeluI-1" value="" style="rounded=1;whiteSpace=wrap;html=1;fillColor=#f5f5f5;strokeColor=#666666;fillStyle=auto;fontFamily=Courier New;fontSize=18;fontColor=#333333;" parent="1" vertex="1">
          <mxGeometry x="160" y="40" width="210" height="180" as="geometry" />
        </mxCell>
        <mxCell id="sPl0X7sWRRIbJbTLeluI-2" value="" style="group;align=left;fontFamily=Courier New;fontSize=18;" parent="1" vertex="1" connectable="0">
          <mxGeometry x="190" y="90" width="150" height="30" as="geometry" />
        </mxCell>
        <mxCell id="sPl0X7sWRRIbJbTLeluI-3" value="" style="image;aspect=fixed;html=1;points=[];align=center;fontSize=18;image=img/lib/azure2/general/Folder_Blank.svg;fontFamily=Courier New;" parent="sPl0X7sWRRIbJbTLeluI-2" vertex="1">
          <mxGeometry y="5" width="24.64" height="20" as="geometry" />
        </mxCell>
        <mxCell id="sPl0X7sWRRIbJbTLeluI-4" value="&lt;font style=&quot;font-size: 18px;&quot;&gt;Coderr&lt;/font&gt;" style="text;html=1;align=left;verticalAlign=middle;whiteSpace=wrap;rounded=0;fontFamily=Courier New;fontSize=18;" parent="sPl0X7sWRRIbJbTLeluI-2" vertex="1">
          <mxGeometry x="30" width="90" height="30" as="geometry" />
        </mxCell>
        <mxCell id="sPl0X7sWRRIbJbTLeluI-5" value="" style="group;align=left;fontFamily=Courier New;fontSize=18;" parent="1" vertex="1" connectable="0">
          <mxGeometry x="190" y="130" width="150" height="30" as="geometry" />
        </mxCell>
        <mxCell id="sPl0X7sWRRIbJbTLeluI-6" value="" style="image;aspect=fixed;html=1;points=[];align=center;fontSize=18;image=img/lib/azure2/general/Folder_Blank.svg;fontFamily=Courier New;" parent="sPl0X7sWRRIbJbTLeluI-5" vertex="1">
          <mxGeometry y="5" width="24.64" height="20" as="geometry" />
        </mxCell>
        <mxCell id="sPl0X7sWRRIbJbTLeluI-7" value="Mode" style="text;html=1;align=left;verticalAlign=middle;whiteSpace=wrap;rounded=0;fontFamily=Courier New;fontSize=18;" parent="sPl0X7sWRRIbJbTLeluI-5" vertex="1">
          <mxGeometry x="30" width="90" height="30" as="geometry" />
        </mxCell>
        <mxCell id="sPl0X7sWRRIbJbTLeluI-8" value="&lt;font style=&quot;font-size: 18px;&quot;&gt;Core&lt;/font&gt;" style="text;html=1;align=center;verticalAlign=middle;whiteSpace=wrap;rounded=0;fontFamily=Courier New;fontSize=18;" parent="1" vertex="1">
          <mxGeometry x="167.5" y="50" width="195" height="30" as="geometry" />
        </mxCell>
        <mxCell id="sPl0X7sWRRIbJbTLeluI-13" value="" style="group;align=left;fontFamily=Courier New;fontSize=18;" parent="1" vertex="1" connectable="0">
          <mxGeometry x="190" y="170" width="150" height="30" as="geometry" />
        </mxCell>
        <mxCell id="sPl0X7sWRRIbJbTLeluI-14" value="" style="image;aspect=fixed;html=1;points=[];align=center;fontSize=18;image=img/lib/azure2/general/Folder_Blank.svg;fontFamily=Courier New;" parent="sPl0X7sWRRIbJbTLeluI-13" vertex="1">
          <mxGeometry y="5" width="24.64" height="20" as="geometry" />
        </mxCell>
        <mxCell id="sPl0X7sWRRIbJbTLeluI-15" value="Global" style="text;html=1;align=left;verticalAlign=middle;whiteSpace=wrap;rounded=0;fontFamily=Courier New;fontSize=18;" parent="sPl0X7sWRRIbJbTLeluI-13" vertex="1">
          <mxGeometry x="30" width="90" height="30" as="geometry" />
        </mxCell>
      </root>
    </mxGraphModel>
  </diagram>
</mxfile>
